M48
;GenerationSoftware,Autodesk,EAGLE,9.7.0*%
;CreationDate,2026-04-19T23:45:45Z*%
FMAT,2
ICI,OFF
METRIC,TZ,000.000
T8C0.300
T7C0.350
T6C0.559
T5C0.600
T4C0.650
T3C0.700
T2C1.067
T1C2.451
%
G90
M71
T1
X20523Y-4440
X20523Y-9520
X17348Y-4440
X17348Y-9520
T2
X20523Y-6980
X15443Y-5964
X15443Y-7996
T3
X2990Y12322
X-2790Y12322
T4
X4420Y15972
X-4220Y15972
X4420Y11822
X-4220Y11822
T5
X18400Y9603
X22321Y9603
X19900Y9603
X17797Y2300
X17797Y4300
T6
X12848Y-14869
X-12858Y-14849
X-9152Y-14869
X-1858Y-14849
X1848Y-14869
X9142Y-14849
T7
X-8700Y5300
X-7800Y7800
X-6400Y-5000
X-5200Y-2400
X-9000Y8000
X-11100Y-12800
X-10300Y-10400
X-5400Y6800
X-6100Y7600
X-4900Y4900
X-3950Y-9150
X-3200Y-7300
X1000Y-3800
X500Y-2600
X3200Y-2200
X9100Y4270
X3200Y-3000
X500Y-1300
X900Y1100
X6300Y900
X6900Y2100
X8600Y4520
X16100Y1300
X21900Y-6400
X8800Y-9600
X18900Y-8800
X17100Y-100
X15100Y2520
X7900Y-13300
X17700Y-12500
X9400Y-2200
X14600Y2000
X11100Y900
X11000Y-1429
X15800Y6400
X7500Y4100
X17300Y7100
X18000Y8000
X11400Y-9700
X13400Y-9400
X4100Y-5000
X10850Y2020
X-10400Y-8700
X-8600Y-13400
X10400Y2000
X5900Y0
X7900Y-100
X5200Y6400
X8400Y6400
X2900Y7300
X8200Y7300
X8100Y10800
X9100Y7700
X12400Y9500
X9300Y12900
X10100Y8300
X14800Y9200
X8200Y1700
X2600Y13500
X-6700Y10600
X-2400Y10300
X1700Y10400
X3800Y13600
X16132Y13548
X-2300Y8400
X-8000Y9600
X-19900Y-12500
X-18500Y-12900
X-5600Y-12100
X-6905Y-9008
X-1200Y1600
X-500Y7500
X1400Y7700
X2500Y4200
X8600Y5020
X-14300Y5500
X-17800Y8500
X13500Y700
X11000Y8400
X13600Y8500
X-7400Y-13600
X-7100Y-11900
X-11200Y-10500
X-12300Y-9100
X8800Y-6300
X4320Y-3175
X1800Y-4900
X2190Y-2705
X-15400Y-12900
X-14000Y-10700
X10500Y9400
X8600Y7520
X19100Y-5500
X15500Y-1400
X13600Y-829
X-12300Y8900
X-10695Y-540
X-13400Y7200
X-13300Y-1800
X-14300Y800
X-14100Y-5300
X-10900Y1500
X-12600Y1500
X-9800Y16600
X-7700Y15100
X-12600Y15000
X6400Y15000
X1600Y14800
X5600Y16600
X2900Y15800
X-17000Y-9100
X-16600Y-11400
X-4000Y-2900
X-7500Y-8300
X-3800Y-2200
X-4200Y8600
X-5200Y-7200
X-6400Y-8300
X6300Y2900
X5600Y3600
X-9200Y900
X-9900Y2200
X6600Y10400
X200Y-12000
X-12800Y5900
X4200Y-1000
X2000Y-1900
X14100Y-7800
X14300Y-6100
X15100Y7100
T8
X12450Y6570
X13650Y6570
X13650Y5370
X12450Y5370
X10050Y4170
X11250Y4170
X12450Y4170
X13650Y4170
X13650Y2970
X12450Y2970
X11250Y2970
X10050Y2970
X21700Y1000
X20400Y1000
X10050Y5370
X10050Y6570
X11250Y6570
X11250Y5370
M30